<?xml version="1.0" encoding="UTF-8" standalone="no"?>
<svg
   xmlns:dc="http://purl.org/dc/elements/1.1/"
   xmlns:cc="http://creativecommons.org/ns#"
   xmlns:rdf="http://www.w3.org/1999/02/22-rdf-syntax-ns#"
   xmlns:svg="http://www.w3.org/2000/svg"
   xmlns="http://www.w3.org/2000/svg"
   xmlns:sodipodi="http://sodipodi.sourceforge.net/DTD/sodipodi-0.dtd"
   xmlns:inkscape="http://www.inkscape.org/namespaces/inkscape"
   width="1024"
   height="1024"
   viewBox="0 0 270.93333 270.93334"
   version="1.1"
   id="svg8"
   inkscape:version="1.0.1 (3bc2e813f5, 2020-09-07)"
   sodipodi:docname="pronouns-white.svg"
   inkscape:export-filename="/home/lucy/src/lucyy.me/icons/pronouns/pronouns-white-1024.png"
   inkscape:export-xdpi="96"
   inkscape:export-ydpi="96">
  <defs
     id="defs2">
    <marker
       style="overflow:visible"
       id="marker1898"
       refX="0.0"
       refY="0.0"
       orient="auto"
       inkscape:stockid="Arrow1Lstart"
       inkscape:isstock="true">
      <path
         transform="scale(0.8) translate(12.5,0)"
         style="fill-rule:evenodd;stroke:#fa9efa;stroke-width:1pt;stroke-opacity:1;fill:#fa9efa;fill-opacity:1"
         d="M 0.0,0.0 L 5.0,-5.0 L -12.5,0.0 L 5.0,5.0 L 0.0,0.0 z "
         id="path1896" />
    </marker>
    <marker
       style="overflow:visible"
       id="marker1870"
       refX="0.0"
       refY="0.0"
       orient="auto"
       inkscape:stockid="Arrow1Lstart"
       inkscape:isstock="true">
      <path
         transform="scale(0.8) translate(12.5,0)"
         style="fill-rule:evenodd;stroke:#000000;stroke-width:1.0pt"
         d="M 0.0,0.0 L 5.0,-5.0 L -12.5,0.0 L 5.0,5.0 L 0.0,0.0 z "
         id="path1868" />
    </marker>
    <marker
       style="overflow:visible"
       id="marker1848"
       refX="0.0"
       refY="0.0"
       orient="auto"
       inkscape:stockid="Arrow1Lstart"
       inkscape:isstock="true">
      <path
         transform="scale(0.8) translate(12.5,0)"
         style="fill-rule:evenodd;stroke:#000000;stroke-width:1.0pt"
         d="M 0.0,0.0 L 5.0,-5.0 L -12.5,0.0 L 5.0,5.0 L 0.0,0.0 z "
         id="path1846" />
    </marker>
    <marker
       style="overflow:visible"
       id="marker1832"
       refX="0.0"
       refY="0.0"
       orient="auto"
       inkscape:stockid="Arrow1Lstart"
       inkscape:isstock="true">
      <path
         transform="scale(0.8) translate(12.5,0)"
         style="fill-rule:evenodd;stroke:#000000;stroke-width:1.0pt"
         d="M 0.0,0.0 L 5.0,-5.0 L -12.5,0.0 L 5.0,5.0 L 0.0,0.0 z "
         id="path1830" />
    </marker>
    <marker
       style="overflow:visible"
       id="Arrow1Lstart"
       refX="0.0"
       refY="0.0"
       orient="auto"
       inkscape:stockid="Arrow1Lstart"
       inkscape:isstock="true">
      <path
         transform="scale(0.8) translate(12.5,0)"
         style="fill-rule:evenodd;stroke:#000000;stroke-width:1.0pt"
         d="M 0.0,0.0 L 5.0,-5.0 L -12.5,0.0 L 5.0,5.0 L 0.0,0.0 z "
         id="path1560" />
    </marker>
  </defs>
  <sodipodi:namedview
     id="base"
     pagecolor="#ffffff"
     bordercolor="#666666"
     borderopacity="1.0"
     inkscape:pageopacity="0.0"
     inkscape:pageshadow="2"
     inkscape:zoom="0.24748738"
     inkscape:cx="616.27913"
     inkscape:cy="348.97867"
     inkscape:document-units="px"
     inkscape:current-layer="layer1"
     inkscape:document-rotation="0"
     showgrid="false"
     units="px"
     inkscape:snap-bbox="true"
     inkscape:snap-intersection-paths="true"
     inkscape:object-paths="false"
     inkscape:snap-smooth-nodes="true"
     inkscape:window-width="924"
     inkscape:window-height="1002"
     inkscape:window-x="2886"
     inkscape:window-y="48"
     inkscape:window-maximized="0" />
  <metadata
     id="metadata5">
    <rdf:RDF>
      <cc:Work
         rdf:about="">
        <dc:format>image/svg+xml</dc:format>
        <dc:type
           rdf:resource="http://purl.org/dc/dcmitype/StillImage" />
        <dc:title />
      </cc:Work>
    </rdf:RDF>
  </metadata>
  <g
     inkscape:label="Layer 1"
     inkscape:groupmode="layer"
     id="layer1">
    <path
       id="path2070"
       style="color:#000000;font-style:normal;font-variant:normal;font-weight:normal;font-stretch:normal;font-size:medium;line-height:normal;font-family:sans-serif;font-variant-ligatures:normal;font-variant-position:normal;font-variant-caps:normal;font-variant-numeric:normal;font-variant-alternates:normal;font-variant-east-asian:normal;font-feature-settings:normal;font-variation-settings:normal;text-indent:0;text-align:start;text-decoration:none;text-decoration-line:none;text-decoration-style:solid;text-decoration-color:#000000;letter-spacing:normal;word-spacing:normal;text-transform:none;writing-mode:lr-tb;direction:ltr;text-orientation:mixed;dominant-baseline:auto;baseline-shift:baseline;text-anchor:start;white-space:normal;shape-padding:0;shape-margin:0;inline-size:0;clip-rule:nonzero;display:inline;overflow:visible;visibility:visible;opacity:1;isolation:auto;mix-blend-mode:normal;color-interpolation:sRGB;color-interpolation-filters:linearRGB;solid-color:#000000;solid-opacity:1;vector-effect:none;fill:#fa9efa;fill-opacity:1;fill-rule:nonzero;stroke:none;stroke-width:69.9999;stroke-linecap:butt;stroke-linejoin:bevel;stroke-miterlimit:4;stroke-dasharray:none;stroke-dashoffset:0;stroke-opacity:1;color-rendering:auto;image-rendering:auto;shape-rendering:auto;text-rendering:auto;enable-background:accumulate;stop-color:#000000;stop-opacity:1"
       d="M 646.19336 84.105469 C 646.14292 84.105472 646.09336 84.109158 646.04297 84.109375 L 645.19141 84.109375 L 645.19141 84.130859 C 626.328 84.663913 611.19661 100.11151 611.19531 119.10352 C 611.19661 138.09552 626.328 153.54311 645.19141 154.07617 L 645.19141 154.10352 L 762.53516 154.10352 L 656.07227 263.95508 C 613.49153 232.42654 562.74835 216.65039 512 216.65039 C 457.19385 216.65039 402.39531 235.05058 357.87695 271.82227 L 414.9668 322.41797 C 443.97304 301.59953 477.9845 291.17773 512 291.17773 C 554.68689 291.17773 597.37614 307.57148 630.16211 340.35742 C 684.11689 394.31222 693.66499 475.07829 658.82812 538.53516 L 715.86328 589.08008 C 769.69665 504.8967 766.31345 394.15694 705.7168 313.31445 L 810.19141 205.51367 L 810.19141 319.10352 A 34.999934 34.999934 0 0 0 845.19727 354.10938 A 34.999934 34.999934 0 0 0 880.19531 319.10352 L 880.19531 119.10742 A 34.999934 34.999934 0 0 0 845.19727 84.109375 L 694.34766 84.109375 C 694.29726 84.109158 694.24771 84.105472 694.19727 84.105469 L 646.19336 84.105469 z "
       transform="scale(0.26458333)" />
    <path
       id="path2904"
       style="color:#000000;font-style:normal;font-variant:normal;font-weight:normal;font-stretch:normal;font-size:medium;line-height:normal;font-family:sans-serif;font-variant-ligatures:normal;font-variant-position:normal;font-variant-caps:normal;font-variant-numeric:normal;font-variant-alternates:normal;font-variant-east-asian:normal;font-feature-settings:normal;font-variation-settings:normal;text-indent:0;text-align:start;text-decoration:none;text-decoration-line:none;text-decoration-style:solid;text-decoration-color:#000000;letter-spacing:normal;word-spacing:normal;text-transform:none;writing-mode:lr-tb;direction:ltr;text-orientation:mixed;dominant-baseline:auto;baseline-shift:baseline;text-anchor:start;white-space:normal;shape-padding:0;shape-margin:0;inline-size:0;clip-rule:nonzero;display:inline;overflow:visible;visibility:visible;opacity:1;isolation:auto;mix-blend-mode:normal;color-interpolation:sRGB;color-interpolation-filters:linearRGB;solid-color:#000000;solid-opacity:1;vector-effect:none;fill:#9dacfa;fill-opacity:1;fill-rule:nonzero;stroke:none;stroke-width:69.9999;stroke-linecap:round;stroke-linejoin:bevel;stroke-miterlimit:4;stroke-dasharray:none;stroke-dashoffset:0;stroke-opacity:1;color-rendering:auto;image-rendering:auto;shape-rendering:auto;text-rendering:auto;enable-background:accumulate;stop-color:#000000;stop-opacity:1"
       d="M 308.13672 327.95703 C 248.26833 421.57785 259.14689 548.05313 340.80664 629.71289 C 379.03854 667.94479 427.09594 690.64922 477.00391 697.85547 L 477.00391 781.92578 L 411.99805 781.92578 A 34.999936 34.999936 0 0 0 377 816.92383 A 34.999936 34.999936 0 0 0 411.99805 851.92969 L 477.00391 851.92969 L 477.00391 904.89453 A 34.999936 34.999936 0 0 0 512 939.89258 A 34.999936 34.999936 0 0 0 546.99805 904.89453 L 546.99805 851.92969 L 612.00391 851.92969 A 34.999936 34.999936 0 0 0 647 816.92383 A 34.999936 34.999936 0 0 0 612.00391 781.92578 L 546.99805 781.92578 L 546.99805 697.84961 C 589.73307 691.67225 631.11158 674.13598 666.125 645.21484 L 609.03516 594.61914 C 543.62874 641.56482 452.75014 635.59193 393.83789 576.67969 C 339.88336 522.72514 330.33555 441.95871 365.17188 378.50195 L 308.13672 327.95703 z "
       transform="scale(0.26458333)" />
  </g>
</svg>
